<svg width="19" height="20" viewBox="0 0 19 20" fill="none" xmlns="http://www.w3.org/2000/svg">
<path d="M9.51663 5.42447e-08C14.7256 0.000568963 19.0107 4.51885 18.9999 9.99972C18.9891 15.5676 14.7218 20.0125 9.39986 19.9994C4.25903 19.9875 -0.0066168 15.4607 -0.00012994 10.0242C0.00635691 4.4739 4.25417 -0.000568855 9.51663 5.42447e-08ZM9.46473 18.1806C13.7639 18.1931 17.256 14.5368 17.2706 10.0083C17.2852 5.53207 13.8044 1.83416 9.56366 1.82165C5.24936 1.80799 1.74159 5.44219 1.72916 9.93827C1.71672 14.4856 5.1726 18.1681 9.46473 18.1806Z" fill="#3EAC54"/>
<path d="M8.64211 7.27236C8.64211 6.35016 8.63562 5.42739 8.64481 4.50519C8.64914 4.06315 8.97781 3.69904 9.37891 3.65126C9.82218 3.59835 10.2108 3.8572 10.3244 4.29754C10.3573 4.42497 10.3584 4.56379 10.3584 4.69748C10.3606 6.26596 10.3617 7.83388 10.3568 9.40236C10.3563 9.55653 10.3973 9.66519 10.5022 9.77442C11.2217 10.5225 11.9353 11.2763 12.6488 12.0307C12.9505 12.3499 13.0224 12.7316 12.8607 13.0991C12.6045 13.6806 11.9072 13.8063 11.4552 13.3421C10.9871 12.8613 10.5292 12.3698 10.0671 11.8834C9.69514 11.492 9.32647 11.0971 8.95024 10.7108C8.73455 10.489 8.63454 10.2313 8.63725 9.91267C8.64481 9.03257 8.63995 8.15303 8.63995 7.27293C8.64049 7.27236 8.64157 7.27236 8.64211 7.27236Z" fill="#3EAC54"/>
</svg>
