<svg width="67" height="67" viewBox="0 0 67 67" fill="none" xmlns="http://www.w3.org/2000/svg">
<path d="M32.9738 0C33.3234 0 33.6714 0 34.021 0C34.5176 0.375855 35.0578 0.704509 35.5036 1.13281C45.3835 10.5834 55.2494 20.0497 65.131 29.4985C65.9458 30.2781 66.6976 31.0701 67 32.1906C67 32.6277 67 33.063 67 33.5C66.9528 33.5927 66.8951 33.6818 66.8619 33.778C66.3164 35.374 65.1171 36.2516 63.4194 36.2778C62.5697 36.2901 61.7183 36.2813 60.8686 36.2813C60.1343 36.2813 59.4 36.2813 58.6255 36.2813C58.6255 36.6327 58.6255 36.8914 58.6255 37.1502C58.6255 45.5885 58.6272 54.0269 58.6255 62.4653C58.6255 65.2588 56.8876 66.9983 54.1025 67C50.417 67.0017 46.7315 67.0017 43.046 67C41.2329 67 40.4689 66.2326 40.4672 64.4127C40.4654 58.6788 40.4672 52.943 40.4654 47.2091C40.4654 46.2056 40.3256 46.064 39.3412 46.064C35.4599 46.0623 31.5786 46.064 27.6973 46.064C26.6605 46.064 26.5294 46.1951 26.5294 47.2283C26.5276 52.9186 26.5294 58.6106 26.5294 64.3008C26.5294 66.2728 25.8108 67 23.8667 67C20.2476 67 16.6268 67 13.0077 67C10.0775 67 8.37284 65.3025 8.37284 62.3814C8.37284 53.943 8.37284 45.5046 8.37284 37.0662C8.37284 36.818 8.37284 36.568 8.37284 36.2708C6.60701 36.2708 4.95133 36.3023 3.2974 36.2621C1.77984 36.2254 0.496556 35.1608 0.12241 33.6958C-0.265722 32.1766 0.305986 30.9966 1.3987 29.953C11.4027 20.3801 21.3927 10.7949 31.3985 1.22371C31.8758 0.767442 32.4475 0.405573 32.9738 0Z" fill="#EE7136"/>
</svg>
