<svg width="51" height="52" viewBox="0 0 51 52" fill="none" xmlns="http://www.w3.org/2000/svg">
<path d="M20.8572 26.1989C20.8572 23.6355 22.936 21.5569 25.5009 21.5569C28.0659 21.5569 30.1458 23.6355 30.1458 26.1989C30.1458 28.7624 28.0659 30.841 25.5009 30.841C22.936 30.841 20.8572 28.7624 20.8572 26.1989ZM18.3463 26.1989C18.3463 30.1481 21.5494 33.3493 25.5009 33.3493C29.4524 33.3493 32.6556 30.1481 32.6556 26.1989C32.6556 22.2498 29.4524 19.0486 25.5009 19.0486C21.5494 19.0486 18.3463 22.2498 18.3463 26.1989ZM31.2668 18.7651C31.2667 19.0956 31.3646 19.4187 31.5482 19.6936C31.7318 19.9684 31.9929 20.1827 32.2983 20.3093C32.6038 20.4359 32.94 20.4691 33.2643 20.4048C33.5887 20.3404 33.8867 20.1814 34.1206 19.9478C34.3545 19.7142 34.5139 19.4165 34.5785 19.0924C34.6432 18.7683 34.6102 18.4323 34.4838 18.1269C34.3574 17.8215 34.1432 17.5605 33.8683 17.3768C33.5934 17.193 33.2702 17.0949 32.9395 17.0948H32.9388C32.4955 17.095 32.0705 17.271 31.757 17.5842C31.4435 17.8974 31.2672 18.3221 31.2668 18.7651ZM19.8719 37.5336C18.5134 37.4718 17.7751 37.2456 17.2844 37.0546C16.6339 36.8015 16.1697 36.5 15.6817 36.013C15.1937 35.5259 14.8916 35.0625 14.6395 34.4124C14.4482 33.9222 14.2219 33.1841 14.1602 31.8264C14.0926 30.3586 14.0791 29.9177 14.0791 26.1991C14.0791 22.4804 14.0937 22.0407 14.1602 20.5717C14.222 19.214 14.45 18.4774 14.6395 17.9857C14.8927 17.3356 15.1944 16.8717 15.6817 16.384C16.169 15.8963 16.6327 15.5944 17.2844 15.3424C17.7748 15.1513 18.5134 14.9251 19.8719 14.8634C21.3405 14.7959 21.7817 14.7824 25.5009 14.7824C29.2201 14.7824 29.6618 14.797 31.1317 14.8634C32.4901 14.9252 33.2273 15.1531 33.7192 15.3424C34.3697 15.5944 34.8338 15.897 35.3219 16.384C35.8099 16.8711 36.1108 17.3356 36.3641 17.9857C36.5553 18.4759 36.7816 19.214 36.8434 20.5717C36.9109 22.0407 36.9244 22.4804 36.9244 26.1991C36.9244 29.9177 36.9109 30.3574 36.8434 31.8264C36.7815 33.1841 36.5541 33.922 36.3641 34.4124C36.1108 35.0625 35.8092 35.5264 35.3219 36.013C34.8345 36.4996 34.3697 36.8015 33.7192 37.0546C33.2287 37.2457 32.4901 37.4719 31.1317 37.5336C29.663 37.6011 29.2218 37.6146 25.5009 37.6146C21.7801 37.6146 21.3401 37.6011 19.8719 37.5336ZM19.7565 12.3583C18.2732 12.4258 17.2596 12.6608 16.3745 13.005C15.4578 13.3605 14.6817 13.8374 13.9063 14.6112C13.1308 15.385 12.6548 16.1618 12.2991 17.0779C11.9547 17.9631 11.7195 18.9755 11.6519 20.4579C11.5833 21.9427 11.5676 22.4174 11.5676 26.1989C11.5676 29.9805 11.5833 30.4552 11.6519 31.94C11.7195 33.4225 11.9547 34.4348 12.2991 35.3199C12.6548 36.2355 13.1309 37.0132 13.9063 37.7867C14.6816 38.5601 15.4578 39.0364 16.3745 39.3928C17.2613 39.7371 18.2732 39.9721 19.7565 40.0396C21.2429 40.1071 21.7171 40.124 25.5009 40.124C29.2848 40.124 29.7598 40.1083 31.2454 40.0396C32.7288 39.9721 33.7417 39.7371 34.6274 39.3928C35.5436 39.0364 36.3201 38.5605 37.0956 37.7867C37.8711 37.0129 38.3461 36.2355 38.7028 35.3199C39.0472 34.4348 39.2835 33.4224 39.3499 31.94C39.4175 30.4541 39.4332 29.9805 39.4332 26.1989C39.4332 22.4174 39.4175 21.9427 39.3499 20.4579C39.2824 18.9754 39.0472 17.9626 38.7028 17.0779C38.3461 16.1623 37.8699 15.3862 37.0956 14.6112C36.3214 13.8362 35.5436 13.3605 34.6285 13.005C33.7417 12.6608 32.7287 12.4247 31.2465 12.3583C29.7609 12.2907 29.2859 12.2739 25.5021 12.2739C21.7182 12.2739 21.2429 12.2896 19.7565 12.3583Z" fill="url(#paint0_radial_32_397)"/>
<path d="M20.8572 26.1989C20.8572 23.6355 22.936 21.5569 25.5009 21.5569C28.0659 21.5569 30.1458 23.6355 30.1458 26.1989C30.1458 28.7624 28.0659 30.841 25.5009 30.841C22.936 30.841 20.8572 28.7624 20.8572 26.1989ZM18.3463 26.1989C18.3463 30.1481 21.5494 33.3493 25.5009 33.3493C29.4524 33.3493 32.6556 30.1481 32.6556 26.1989C32.6556 22.2498 29.4524 19.0486 25.5009 19.0486C21.5494 19.0486 18.3463 22.2498 18.3463 26.1989ZM31.2668 18.7651C31.2667 19.0956 31.3646 19.4187 31.5482 19.6936C31.7318 19.9684 31.9929 20.1827 32.2983 20.3093C32.6038 20.4359 32.94 20.4691 33.2643 20.4048C33.5887 20.3404 33.8867 20.1814 34.1206 19.9478C34.3545 19.7142 34.5139 19.4165 34.5785 19.0924C34.6432 18.7683 34.6102 18.4323 34.4838 18.1269C34.3574 17.8215 34.1432 17.5605 33.8683 17.3768C33.5934 17.193 33.2702 17.0949 32.9395 17.0948H32.9388C32.4955 17.095 32.0705 17.271 31.757 17.5842C31.4435 17.8974 31.2672 18.3221 31.2668 18.7651ZM19.8719 37.5336C18.5134 37.4718 17.7751 37.2456 17.2844 37.0546C16.6339 36.8015 16.1697 36.5 15.6817 36.013C15.1937 35.5259 14.8916 35.0625 14.6395 34.4124C14.4482 33.9222 14.2219 33.1841 14.1602 31.8264C14.0926 30.3586 14.0791 29.9177 14.0791 26.1991C14.0791 22.4804 14.0937 22.0407 14.1602 20.5717C14.222 19.214 14.45 18.4774 14.6395 17.9857C14.8927 17.3356 15.1944 16.8717 15.6817 16.384C16.169 15.8963 16.6327 15.5944 17.2844 15.3424C17.7748 15.1513 18.5134 14.9251 19.8719 14.8634C21.3405 14.7959 21.7817 14.7824 25.5009 14.7824C29.2201 14.7824 29.6618 14.797 31.1317 14.8634C32.4901 14.9252 33.2273 15.1531 33.7192 15.3424C34.3697 15.5944 34.8338 15.897 35.3219 16.384C35.8099 16.8711 36.1108 17.3356 36.3641 17.9857C36.5553 18.4759 36.7816 19.214 36.8434 20.5717C36.9109 22.0407 36.9244 22.4804 36.9244 26.1991C36.9244 29.9177 36.9109 30.3574 36.8434 31.8264C36.7815 33.1841 36.5541 33.922 36.3641 34.4124C36.1108 35.0625 35.8092 35.5264 35.3219 36.013C34.8345 36.4996 34.3697 36.8015 33.7192 37.0546C33.2287 37.2457 32.4901 37.4719 31.1317 37.5336C29.663 37.6011 29.2218 37.6146 25.5009 37.6146C21.7801 37.6146 21.3401 37.6011 19.8719 37.5336ZM19.7565 12.3583C18.2732 12.4258 17.2596 12.6608 16.3745 13.005C15.4578 13.3605 14.6817 13.8374 13.9063 14.6112C13.1308 15.385 12.6548 16.1618 12.2991 17.0779C11.9547 17.9631 11.7195 18.9755 11.6519 20.4579C11.5833 21.9427 11.5676 22.4174 11.5676 26.1989C11.5676 29.9805 11.5833 30.4552 11.6519 31.94C11.7195 33.4225 11.9547 34.4348 12.2991 35.3199C12.6548 36.2355 13.1309 37.0132 13.9063 37.7867C14.6816 38.5601 15.4578 39.0364 16.3745 39.3928C17.2613 39.7371 18.2732 39.9721 19.7565 40.0396C21.2429 40.1071 21.7171 40.124 25.5009 40.124C29.2848 40.124 29.7598 40.1083 31.2454 40.0396C32.7288 39.9721 33.7417 39.7371 34.6274 39.3928C35.5436 39.0364 36.3201 38.5605 37.0956 37.7867C37.8711 37.0129 38.3461 36.2355 38.7028 35.3199C39.0472 34.4348 39.2835 33.4224 39.3499 31.94C39.4175 30.4541 39.4332 29.9805 39.4332 26.1989C39.4332 22.4174 39.4175 21.9427 39.3499 20.4579C39.2824 18.9754 39.0472 17.9626 38.7028 17.0779C38.3461 16.1623 37.8699 15.3862 37.0956 14.6112C36.3214 13.8362 35.5436 13.3605 34.6285 13.005C33.7417 12.6608 32.7287 12.4247 31.2465 12.3583C29.7609 12.2907 29.2859 12.2739 25.5021 12.2739C21.7182 12.2739 21.2429 12.2896 19.7565 12.3583Z" fill="#BCD6B0"/>
<defs>
<radialGradient id="paint0_radial_32_397" cx="0" cy="0" r="1" gradientUnits="userSpaceOnUse" gradientTransform="translate(15.2698 40.2555) scale(36.3777 36.3559)">
<stop offset="0.09" stop-color="#FA8F21"/>
<stop offset="0.78" stop-color="#D82D7E"/>
</radialGradient>
</defs>
</svg>
