<svg width="29" height="21" viewBox="0 0 29 21" fill="none" xmlns="http://www.w3.org/2000/svg">
<g clip-path="url(#clip0_3_42)">
<path d="M0 2.27795C0.0801836 2.02484 0.159611 1.77096 0.233743 1.53654C3.16423 4.52709 6.07656 7.49972 8.99343 10.4762C6.06521 13.4621 3.15137 16.434 0.226178 19.4167C0.167175 19.236 0.0832094 18.979 0 18.7228C0 13.2409 0 7.75906 0 2.27795Z" fill="#3EAC54"/>
<path d="M1.46674 0.213389C1.81243 0.137068 2.10215 0.0669768 2.3949 0.0116829C2.50458 -0.0093444 2.62108 0.0031162 2.73379 0.0031162C10.5759 0.0031162 18.4173 0.00389498 26.2594 0.000779835C26.6784 0.000779835 27.0824 0.051401 27.4954 0.249213C27.416 0.337995 27.357 0.408864 27.2927 0.475061C23.2888 4.6112 19.2849 8.74734 15.2803 12.8827C14.7825 13.3967 14.2144 13.3975 13.7189 12.8858C9.71506 8.75046 5.71117 4.61509 1.70729 0.478955C1.64223 0.41198 1.58172 0.340331 1.46674 0.213389Z" fill="#3EAC54"/>
<path d="M1.50079 20.7414C4.42825 17.7564 7.33529 14.7915 10.262 11.808C10.2877 11.8329 10.3634 11.9007 10.4337 11.9739C11.1266 12.6888 11.818 13.406 12.5117 14.121C13.6842 15.3297 15.3113 15.3281 16.4868 14.121C17.2486 13.3399 18.0118 12.5603 18.741 11.815C21.6503 14.7837 24.5619 17.754 27.531 20.7835C27.1891 20.8606 26.9024 20.9322 26.6126 20.9875C26.503 21.0086 26.3865 20.9969 26.2738 20.9969C18.4241 20.9969 10.5744 20.9969 2.72397 20.9977C2.30792 20.9977 1.90322 20.9556 1.50079 20.7414Z" fill="#3EAC54"/>
<path d="M28.8147 19.5117C25.832 16.4682 22.9204 13.4972 20.002 10.5183C22.9295 7.53399 25.8433 4.56447 28.7837 1.56692C28.8427 1.81535 28.9229 2.12219 28.9864 2.43293C29.0091 2.54507 28.9955 2.66501 28.9955 2.78183C28.9955 7.92961 29 13.0782 28.9879 18.226C28.9871 18.6434 28.879 19.06 28.8147 19.5117Z" fill="#3EAC54"/>
</g>
<defs>
<clipPath id="clip0_3_42">
<rect width="29" height="21" fill="white"/>
</clipPath>
</defs>
</svg>
