<svg width="22" height="44" viewBox="0 0 22 44" fill="none" xmlns="http://www.w3.org/2000/svg">
<path d="M22 11.4293C21.9175 11.0359 21.8539 10.6221 21.75 10.2514C21.1363 8.06903 20.3594 6.11144 19.4988 4.29257C18.9877 3.21393 18.426 2.22019 17.8563 1.25634C17.0654 -0.0818 16.2732 0.713432 15.8661 1.80284C14.841 4.54968 13.8856 7.38979 13.1558 10.493C13.0451 10.9642 12.9663 11.4664 12.8874 11.9627C12.7652 12.7328 12.8361 13.4682 13.1026 14.0638C13.3722 14.6665 13.6833 15.1998 13.984 15.7475C14.1851 16.1134 14.3942 16.4626 14.61 16.7939C14.7249 16.9708 14.742 17.1323 14.6925 17.4025C14.1265 20.4806 13.2279 23.1222 11.995 25.3274C11.0158 27.0793 9.8972 28.3851 8.6533 29.2856C8.48948 29.404 8.38618 29.3824 8.26515 29.0954C7.91613 28.2667 7.55182 27.4619 7.18201 26.6691C6.72602 25.6909 6.1655 25.38 5.54752 25.9492C4.72905 26.7026 3.91242 27.4775 3.13246 28.3696C2.32439 29.294 1.56032 30.3642 0.779751 31.3795C0.439283 31.822 0.19906 32.4163 0.06703 33.1852C-0.0338268 33.7736 -0.0307693 34.3428 0.144661 34.8582C0.351263 35.4633 0.559088 36.0815 0.809702 36.6149C1.95641 39.0568 3.27672 41.0873 4.69971 42.8847C5.26085 43.5926 5.82075 43.5495 6.42711 43.3116C8.2676 42.5905 9.95343 41.128 11.5323 39.1955C15.1686 34.7446 18.08 28.9041 20.1999 21.5916C20.9658 18.9464 21.5452 16.1493 21.8405 13.1466C21.868 12.8691 21.8918 12.5893 21.912 12.3095C21.9322 12.0296 21.945 11.7462 21.9615 11.4652C21.9737 11.4532 21.9872 11.4413 22 11.4293ZM17.0103 3.48897C17.0868 3.61334 17.1222 3.66715 17.1552 3.72694C18.3386 5.83999 19.3637 8.21492 20.2677 10.8003C20.4529 11.3301 20.4871 11.8168 20.4279 12.4195C20.1748 15.0073 19.698 17.436 19.0513 19.7296C16.9816 27.0673 14.0843 32.8564 10.4174 37.1638C8.97848 38.8535 7.44791 40.1318 5.76941 40.6042C5.66244 40.6341 5.52552 40.5719 5.43444 40.4571C4.35863 39.1094 3.36596 37.5548 2.44908 35.8161C2.12817 35.2074 1.82377 34.5652 1.49981 33.9135C1.60188 33.7568 1.67768 33.6325 1.75714 33.52C3.03222 31.7167 4.38186 30.1585 5.79752 28.8144C6.03836 28.586 6.15816 28.6482 6.32381 29.0285C6.76819 30.0485 7.23764 31.0279 7.69608 32.0252C7.90023 32.4701 8.13068 32.5454 8.43141 32.396C9.66798 31.7813 10.786 30.6799 11.819 29.2533C13.9088 26.3677 15.3875 22.5674 16.1546 17.7756C16.4272 16.0728 16.4798 16.4232 15.8001 15.0731C15.3789 14.236 14.9034 13.5017 14.4474 12.7328C14.3386 12.5486 14.3117 12.3956 14.3862 12.1325C14.8838 10.3722 15.3545 8.58324 15.8722 6.84688C16.2127 5.70605 16.6179 4.63817 17.0103 3.48897Z" fill="#3EAC54"/>
<path d="M17.0103 3.489C16.6173 4.637 16.212 5.70608 15.8715 6.84691C15.3538 8.58327 14.8831 10.3722 14.3856 12.1325C14.311 12.3956 14.3379 12.5499 14.4467 12.7328C14.9027 13.5017 15.3783 14.236 15.7994 15.0731C16.4791 16.4232 16.4266 16.0728 16.1539 17.7757C15.3874 22.5674 13.9082 26.3678 11.8183 29.2533C10.7853 30.68 9.66733 31.7813 8.43076 32.396C8.13002 32.5455 7.90019 32.4689 7.69542 32.0253C7.23699 31.0279 6.76754 30.0498 6.32316 29.0285C6.15751 28.6482 6.03771 28.5849 5.79687 28.8145C4.3806 30.1598 3.03157 31.7167 1.75649 33.5201C1.67703 33.6325 1.60123 33.7568 1.49916 33.9135C1.82312 34.564 2.12752 35.2062 2.44843 35.8161C3.36531 37.5548 4.35798 39.1106 5.43379 40.4571C5.52548 40.5719 5.66179 40.6341 5.76875 40.6042C7.44726 40.1319 8.97844 38.8535 10.4167 37.1638C14.0842 32.8576 16.9822 27.0685 19.0513 19.7297C19.698 17.4361 20.1748 15.0073 20.4278 12.4195C20.4871 11.8168 20.4529 11.3301 20.2677 10.8004C19.3636 8.21495 18.3386 5.84002 17.1558 3.72697C17.1222 3.66837 17.0867 3.61456 17.0103 3.489Z" fill="#3EAC54"/>
</svg>
