<svg width="57" height="58" viewBox="0 0 57 58" fill="none" xmlns="http://www.w3.org/2000/svg">
<path d="M14.2501 42.3096L16.2949 34.7132C14.6458 31.7541 14.1219 28.301 14.8193 24.9876C15.5166 21.6742 17.3885 18.7228 20.0914 16.675C22.7944 14.6271 26.147 13.6202 29.5341 13.839C32.9213 14.0578 36.1157 15.4876 38.5313 17.866C40.9469 20.2444 42.4215 23.412 42.6847 26.7874C42.9478 30.1628 41.9818 33.5197 39.9638 36.242C37.9459 38.9643 35.0115 40.8694 31.6989 41.6079C28.3864 42.3463 24.918 41.8684 21.9302 40.2619L14.2501 42.3096ZM22.3006 37.4193L22.7755 37.7004C24.9397 38.9798 27.4673 39.5093 29.9646 39.2063C32.4619 38.9032 34.7886 37.7847 36.582 36.025C38.3755 34.2653 39.5349 31.9632 39.8798 29.4776C40.2246 26.992 39.7354 24.4624 38.4884 22.283C37.2414 20.1037 35.3067 18.397 32.9857 17.4289C30.6648 16.4608 28.0879 16.2857 25.6568 16.931C23.2257 17.5762 21.0768 19.0054 19.5451 20.996C18.0134 22.9866 17.1848 25.4266 17.1885 27.936C17.1865 30.0166 17.7634 32.0569 18.855 33.8299L19.1528 34.3198L18.0097 38.5596L22.3006 37.4193Z" fill="#BCD6B0"/>
<path fill-rule="evenodd" clip-rule="evenodd" d="M33.8286 29.8865C33.5501 29.6624 33.2241 29.5048 32.8753 29.4255C32.5265 29.3461 32.1642 29.3473 31.8159 29.4287C31.2927 29.6456 30.9546 30.4646 30.6164 30.8741C30.5451 30.9723 30.4404 31.0412 30.3218 31.0678C30.2032 31.0944 30.079 31.0769 29.9724 31.0187C28.0567 30.2703 26.4509 28.8978 25.4159 27.1242C25.3276 27.0135 25.2858 26.8729 25.2993 26.7322C25.3128 26.5914 25.3806 26.4613 25.4883 26.3693C25.8654 25.997 26.1423 25.5357 26.2934 25.0283C26.3269 24.4687 26.1983 23.9112 25.923 23.4223C25.7102 22.737 25.3051 22.1268 24.7557 21.6638C24.4723 21.5367 24.1581 21.494 23.851 21.5411C23.5439 21.5881 23.257 21.7227 23.0249 21.9288C22.6219 22.2755 22.3021 22.708 22.0889 23.1944C21.8758 23.6808 21.7747 24.2087 21.7932 24.7393C21.7944 25.0372 21.8323 25.3338 21.9059 25.6226C22.0928 26.3163 22.3803 26.979 22.7592 27.5899C23.0326 28.0578 23.3309 28.5108 23.6528 28.947C24.699 30.3795 26.0141 31.5958 27.5251 32.5283C28.2833 33.0022 29.0937 33.3875 29.9402 33.6766C30.8196 34.0742 31.7905 34.2268 32.7498 34.1182C33.2964 34.0357 33.8143 33.8205 34.2579 33.4914C34.7015 33.1623 35.0572 32.7296 35.2937 32.2312C35.4327 31.9301 35.4749 31.5935 35.4145 31.2676C35.2696 30.6011 34.376 30.2077 33.8286 29.8865Z" fill="#BCD6B0"/>
</svg>
