<svg width="1093" height="348" viewBox="0 0 1093 348" fill="none" xmlns="http://www.w3.org/2000/svg">
<path d="M10.0089 232.035C10.0089 223.536 11.6456 215.542 14.919 208.051C18.2553 200.497 22.7248 193.887 28.3273 188.221C33.9928 182.556 40.5711 178.086 48.0622 174.813C55.5532 171.54 63.5164 169.903 71.9517 169.903C77.5542 169.903 82.9679 170.658 88.1928 172.169C93.4806 173.617 98.4222 175.726 103.018 178.496C107.613 181.202 111.799 184.444 115.576 188.221C119.353 191.998 122.595 196.216 125.302 200.874C128.072 205.47 130.18 210.411 131.628 215.699C133.139 220.924 133.895 226.369 133.895 232.035C133.895 237.7 133.139 243.177 131.628 248.465C130.18 253.689 128.072 258.6 125.302 263.195C122.595 267.79 119.353 271.976 115.576 275.753C111.799 279.53 107.613 282.772 103.018 285.479C98.4222 288.186 93.4806 290.295 88.1928 291.806C82.9679 293.254 77.5542 293.977 71.9517 293.977C66.3491 293.977 60.904 293.254 55.6162 291.806C50.3913 290.295 45.4812 288.186 40.8859 285.479C36.2905 282.772 32.1043 279.53 28.3273 275.753C24.5503 271.976 21.3084 267.79 18.6015 263.195C15.8947 258.6 13.7859 253.689 12.2751 248.465C10.7643 243.177 10.0089 237.7 10.0089 232.035ZM28.7994 232.035C28.7994 238.015 29.9325 243.68 32.1987 249.031C34.4649 254.382 37.5495 259.072 41.4524 263.1C45.3553 267.129 49.9192 270.34 55.144 272.732C60.3689 275.124 65.9714 276.32 71.9517 276.32C77.869 276.32 83.4086 275.124 88.5705 272.732C93.7954 270.34 98.3278 267.129 102.168 263.1C106.071 259.072 109.124 254.382 111.327 249.031C113.593 243.68 114.726 238.015 114.726 232.035C114.726 226.18 113.593 220.546 111.327 215.133C109.124 209.719 106.071 204.966 102.168 200.874C98.3278 196.72 93.7954 193.415 88.5705 190.96C83.4086 188.505 77.869 187.277 71.9517 187.277C65.9714 187.277 60.3689 188.505 55.144 190.96C49.9192 193.415 45.3553 196.72 41.4524 200.874C37.5495 204.966 34.4649 209.719 32.1987 215.133C29.9325 220.546 28.7994 226.18 28.7994 232.035ZM176.346 184.539C177.101 183.091 178.172 181.517 179.556 179.818C181.004 178.118 182.735 176.544 184.75 175.096C186.764 173.648 189.062 172.452 191.643 171.508C194.224 170.501 197.057 169.997 200.141 169.997C203.54 169.997 206.593 170.155 209.3 170.469C212.07 170.721 214.683 171.225 217.138 171.98C219.593 172.673 221.953 173.648 224.219 174.907C226.549 176.103 228.972 177.646 231.49 179.534C232.246 180.101 233.064 180.825 233.945 181.706C234.889 182.587 235.362 183.626 235.362 184.822C235.362 185.515 235.204 186.144 234.889 186.711L229.318 195.303C228.437 196.373 227.556 196.908 226.675 196.908C226.171 196.908 225.699 196.751 225.258 196.436C224.817 196.059 224.282 195.649 223.653 195.209C219.75 192.565 215.942 190.645 212.227 189.449C208.576 188.19 204.673 187.56 200.519 187.56C197.371 187.56 194.35 188.158 191.454 189.354C188.558 190.551 185.977 192.282 183.711 194.548C181.508 196.751 179.714 199.489 178.329 202.763C177.007 205.973 176.346 209.624 176.346 213.716V287.651C176.346 290.421 174.961 291.806 172.191 291.806H162.371C159.475 291.806 158.028 290.421 158.028 287.651V176.041C158.028 174.782 158.437 173.774 159.255 173.019C160.073 172.264 161.049 171.886 162.182 171.886H172.002C173.324 171.886 174.363 172.295 175.118 173.113C175.937 173.932 176.346 174.907 176.346 176.041V184.539ZM354.64 275.848C349.226 281.387 342.931 285.762 335.755 288.973C328.578 292.12 320.804 293.694 312.432 293.694C306.829 293.694 301.384 292.97 296.096 291.522C290.871 290.012 285.961 287.903 281.366 285.196C276.77 282.426 272.584 279.153 268.807 275.376C265.03 271.599 261.757 267.413 258.987 262.817C256.28 258.159 254.171 253.217 252.661 247.992C251.213 242.705 250.489 237.228 250.489 231.562C250.489 225.897 251.213 220.452 252.661 215.227C254.171 209.939 256.28 204.998 258.987 200.402C261.757 195.807 265.03 191.621 268.807 187.844C272.584 184.067 276.77 180.825 281.366 178.118C285.961 175.411 290.871 173.334 296.096 171.886C301.321 170.375 306.766 169.62 312.432 169.62C320.804 169.62 328.578 171.225 335.755 174.435C342.931 177.583 349.226 181.926 354.64 187.466V175.946C354.64 173.176 356.025 171.791 358.794 171.791H368.52C371.479 171.791 372.958 173.176 372.958 175.946V287.651C372.958 288.91 372.549 289.917 371.731 290.673C370.912 291.428 369.936 291.806 368.803 291.806H358.983C357.661 291.806 356.591 291.396 355.773 290.578C355.017 289.76 354.64 288.784 354.64 287.651V275.848ZM355.584 231.562C355.584 225.645 354.451 220.011 352.185 214.66C349.918 209.247 346.834 204.525 342.931 200.497C339.028 196.468 334.433 193.257 329.145 190.865C323.92 188.473 318.349 187.277 312.432 187.277C306.514 187.277 300.943 188.473 295.718 190.865C290.557 193.257 286.024 196.468 282.121 200.497C278.281 204.525 275.228 209.247 272.962 214.66C270.759 220.011 269.657 225.645 269.657 231.562C269.657 237.417 270.759 243.051 272.962 248.465C275.228 253.878 278.281 258.662 282.121 262.817C286.024 266.909 290.557 270.182 295.718 272.637C300.943 275.092 306.514 276.32 312.432 276.32C318.349 276.32 323.92 275.092 329.145 272.637C334.433 270.182 339.028 266.909 342.931 262.817C346.834 258.662 349.918 253.878 352.185 248.465C354.451 243.051 355.584 237.417 355.584 231.562ZM418.135 287.651C418.135 290.421 416.75 291.806 413.98 291.806H404.254C401.295 291.806 399.816 290.421 399.816 287.651V140.442C399.816 139.183 400.225 138.176 401.044 137.421C401.862 136.665 402.838 136.288 403.971 136.288H413.791C415.113 136.288 416.152 136.697 416.907 137.515C417.725 138.333 418.135 139.309 418.135 140.442V287.651Z" fill="#C6C6C6"/>
<path d="M553.689 275.187C548.275 280.915 541.917 285.448 534.615 288.784C527.313 292.057 519.381 293.694 510.82 293.694C505.218 293.694 499.772 292.97 494.485 291.522C489.26 290.012 484.35 287.903 479.754 285.196C475.159 282.426 470.973 279.153 467.196 275.376C463.419 271.599 460.145 267.413 457.376 262.817C454.669 258.159 452.56 253.217 451.049 247.992C449.601 242.705 448.877 237.228 448.877 231.562C448.877 225.897 449.601 220.452 451.049 215.227C452.56 209.939 454.669 204.998 457.376 200.402C460.145 195.807 463.419 191.621 467.196 187.844C470.973 184.067 475.159 180.825 479.754 178.118C484.35 175.411 489.26 173.334 494.485 171.886C499.709 170.375 505.155 169.62 510.82 169.62C519.193 169.62 526.967 171.225 534.143 174.435C541.319 177.583 547.614 181.926 553.028 187.466V175.946C553.028 173.176 554.413 171.791 557.183 171.791L567.853 171.886C570.182 172.201 571.347 173.554 571.347 175.946V177.457V177.74V272.354C571.347 279.53 570.528 286.014 568.892 291.806C567.318 297.534 565.115 302.602 562.282 307.008C559.449 311.415 556.05 315.192 552.084 318.339C548.181 321.487 543.9 324.036 539.242 325.988C534.584 328.002 529.611 329.481 524.323 330.426C519.098 331.37 513.747 331.842 508.271 331.842C500.843 331.842 494.075 330.772 487.969 328.631C481.926 326.491 476.544 323.816 471.823 320.605C471.193 320.291 470.658 319.881 470.217 319.378C469.84 318.937 469.651 318.308 469.651 317.489C469.651 317.237 469.651 316.986 469.651 316.734C469.714 316.482 469.871 316.167 470.123 315.79L475.222 307.575C475.726 306.882 476.166 306.347 476.544 305.969C476.985 305.655 477.457 305.497 477.96 305.497C478.779 305.497 479.534 305.749 480.226 306.253C481.674 307.386 483.594 308.393 485.986 309.274C488.378 310.219 490.928 311.005 493.635 311.635C496.405 312.264 499.143 312.737 501.85 313.051C504.557 313.429 506.949 313.618 509.026 313.618C515.51 313.618 521.459 312.768 526.872 311.068C532.286 309.432 536.944 307.103 540.847 304.081C544.75 301.059 547.803 297.408 550.007 293.128C552.21 288.91 553.311 284.189 553.311 278.964L553.689 275.187ZM553.972 231.562C553.972 225.645 552.839 220.011 550.573 214.66C548.307 209.247 545.222 204.525 541.319 200.497C537.417 196.468 532.821 193.257 527.533 190.865C522.309 188.473 516.737 187.277 510.82 187.277C504.903 187.277 499.332 188.473 494.107 190.865C488.945 193.257 484.413 196.468 480.51 200.497C476.67 204.525 473.617 209.247 471.35 214.66C469.147 220.011 468.046 225.645 468.046 231.562C468.046 237.417 469.147 243.051 471.35 248.465C473.617 253.878 476.67 258.662 480.51 262.817C484.413 266.909 488.945 270.182 494.107 272.637C499.332 275.092 504.903 276.32 510.82 276.32C516.737 276.32 522.309 275.092 527.533 272.637C532.821 270.182 537.417 266.909 541.319 262.817C545.222 258.662 548.307 253.878 550.573 248.465C552.839 243.051 553.972 237.417 553.972 231.562ZM615.644 184.539C616.399 183.091 617.469 181.517 618.854 179.818C620.302 178.118 622.033 176.544 624.048 175.096C626.062 173.648 628.36 172.452 630.941 171.508C633.522 170.501 636.354 169.997 639.439 169.997C642.838 169.997 645.891 170.155 648.598 170.469C651.368 170.721 653.98 171.225 656.435 171.98C658.89 172.673 661.251 173.648 663.517 174.907C665.846 176.103 668.27 177.646 670.788 179.534C671.543 180.101 672.362 180.825 673.243 181.706C674.187 182.587 674.659 183.626 674.659 184.822C674.659 185.515 674.502 186.144 674.187 186.711L668.616 195.303C667.735 196.373 666.854 196.908 665.972 196.908C665.469 196.908 664.997 196.751 664.556 196.436C664.115 196.059 663.58 195.649 662.951 195.209C659.048 192.565 655.239 190.645 651.525 189.449C647.874 188.19 643.971 187.56 639.817 187.56C636.669 187.56 633.647 188.158 630.752 189.354C627.856 190.551 625.275 192.282 623.009 194.548C620.806 196.751 619.012 199.489 617.627 202.763C616.305 205.973 615.644 209.624 615.644 213.716V287.651C615.644 290.421 614.259 291.806 611.489 291.806H601.669C598.773 291.806 597.325 290.421 597.325 287.651V176.041C597.325 174.782 597.734 173.774 598.553 173.019C599.371 172.264 600.347 171.886 601.48 171.886H611.3C612.622 171.886 613.661 172.295 614.416 173.113C615.235 173.932 615.644 174.907 615.644 176.041V184.539ZM687.398 232.035C687.398 223.536 689.035 215.542 692.308 208.051C695.644 200.497 700.114 193.887 705.716 188.221C711.382 182.556 717.96 178.086 725.451 174.813C732.942 171.54 740.905 169.903 749.341 169.903C754.943 169.903 760.357 170.658 765.582 172.169C770.87 173.617 775.811 175.726 780.407 178.496C785.002 181.202 789.188 184.444 792.965 188.221C796.742 191.998 799.984 196.216 802.691 200.874C805.461 205.47 807.57 210.411 809.017 215.699C810.528 220.924 811.284 226.369 811.284 232.035C811.284 237.7 810.528 243.177 809.017 248.465C807.57 253.689 805.461 258.6 802.691 263.195C799.984 267.79 796.742 271.976 792.965 275.753C789.188 279.53 785.002 282.772 780.407 285.479C775.811 288.186 770.87 290.295 765.582 291.806C760.357 293.254 754.943 293.977 749.341 293.977C743.738 293.977 738.293 293.254 733.005 291.806C727.78 290.295 722.87 288.186 718.275 285.479C713.68 282.772 709.493 279.53 705.716 275.753C701.939 271.976 698.697 267.79 695.991 263.195C693.284 258.6 691.175 253.689 689.664 248.465C688.153 243.177 687.398 237.7 687.398 232.035ZM706.189 232.035C706.189 238.015 707.322 243.68 709.588 249.031C711.854 254.382 714.939 259.072 718.841 263.1C722.744 267.129 727.308 270.34 732.533 272.732C737.758 275.124 743.361 276.32 749.341 276.32C755.258 276.32 760.798 275.124 765.96 272.732C771.184 270.34 775.717 267.129 779.557 263.1C783.46 259.072 786.513 254.382 788.716 249.031C790.982 243.68 792.115 238.015 792.115 232.035C792.115 226.18 790.982 220.546 788.716 215.133C786.513 209.719 783.46 204.966 779.557 200.874C775.717 196.72 771.184 193.415 765.96 190.96C760.798 188.505 755.258 187.277 749.341 187.277C743.361 187.277 737.758 188.505 732.533 190.96C727.308 193.415 722.744 196.72 718.841 200.874C714.939 204.966 711.854 209.719 709.588 215.133C707.322 220.546 706.189 226.18 706.189 232.035ZM915.206 277.831C913.38 280.034 911.46 282.017 909.446 283.78C907.494 285.479 905.26 286.927 902.742 288.123C900.287 289.319 897.485 290.232 894.338 290.861C891.19 291.491 887.539 291.806 883.384 291.806C875.642 291.806 868.812 290.484 862.894 287.84C856.977 285.133 852.004 281.482 847.975 276.887C844.009 272.228 840.988 266.783 838.91 260.551C836.896 254.319 835.889 247.646 835.889 240.533V176.418C835.889 174.278 836.424 172.673 837.494 171.603C838.627 170.532 840.043 169.997 841.743 169.997H848.731C851.06 169.997 852.539 170.469 853.168 171.414C853.861 172.358 854.207 173.932 854.207 176.135V240.533C854.207 244.31 854.711 248.181 855.718 252.147C856.788 256.05 858.488 259.607 860.817 262.817C863.209 266.028 866.357 268.64 870.259 270.654C874.162 272.669 878.947 273.676 884.612 273.676C888.2 273.676 891.788 273.047 895.376 271.788C899.028 270.466 902.301 268.546 905.197 266.028C908.155 263.51 910.547 260.425 912.373 256.774C914.261 253.06 915.206 248.779 915.206 243.932V174.152C915.206 171.382 916.591 169.997 919.36 169.997H929.086C932.045 169.997 933.524 171.382 933.524 174.152V285.762C933.524 287.021 933.115 288.029 932.297 288.784C931.478 289.539 930.503 289.917 929.369 289.917H919.549C918.227 289.917 917.157 289.508 916.339 288.69C915.583 287.871 915.206 286.896 915.206 285.762V277.831ZM978.972 187.466C984.386 181.926 990.681 177.583 997.857 174.435C1005.03 171.225 1012.81 169.62 1021.18 169.62C1026.85 169.62 1032.29 170.375 1037.52 171.886C1042.74 173.334 1047.65 175.411 1052.25 178.118C1056.84 180.825 1061.03 184.067 1064.8 187.844C1068.58 191.621 1071.82 195.807 1074.53 200.402C1077.3 204.998 1079.41 209.939 1080.86 215.227C1082.37 220.452 1083.12 225.897 1083.12 231.562C1083.12 237.228 1082.37 242.705 1080.86 247.992C1079.41 253.217 1077.3 258.159 1074.53 262.817C1071.82 267.413 1068.58 271.599 1064.8 275.376C1061.03 279.153 1056.84 282.426 1052.25 285.196C1047.65 287.903 1042.71 290.012 1037.42 291.522C1032.2 292.97 1026.78 293.694 1021.18 293.694C1012.81 293.694 1005.03 292.12 997.857 288.973C990.681 285.762 984.386 281.387 978.972 275.848V324.005C978.972 325.138 978.563 326.113 977.745 326.932C976.989 327.75 975.951 328.159 974.629 328.159H964.808C963.675 328.159 962.7 327.782 961.881 327.026C961.063 326.271 960.654 325.264 960.654 324.005V175.946C960.654 173.176 962.133 171.791 965.092 171.791H974.817C977.587 171.791 978.972 173.176 978.972 175.946V187.466ZM978.028 231.562C978.028 237.417 979.161 243.051 981.427 248.465C983.693 253.878 986.778 258.662 990.681 262.817C994.584 266.909 999.148 270.182 1004.37 272.637C1009.6 275.092 1015.2 276.32 1021.18 276.32C1027.1 276.32 1032.64 275.092 1037.8 272.637C1043.02 270.182 1047.56 266.909 1051.4 262.817C1055.3 258.662 1058.35 253.878 1060.56 248.465C1062.82 243.051 1063.95 237.417 1063.95 231.562C1063.95 225.645 1062.82 220.011 1060.56 214.66C1058.35 209.247 1055.3 204.525 1051.4 200.497C1047.56 196.468 1043.02 193.257 1037.8 190.865C1032.64 188.473 1027.1 187.277 1021.18 187.277C1015.2 187.277 1009.6 188.473 1004.37 190.865C999.148 193.257 994.584 196.468 990.681 200.497C986.778 204.525 983.693 209.247 981.427 214.66C979.161 220.011 978.028 225.645 978.028 231.562Z" fill="#3C3C3B"/>
<path d="M894.53 47.91C882.16 98.02 831.51 128.62 781.39 116.25C731.28 103.88 700.68 53.23 713.05 3.10999" stroke="#878787" stroke-width="26" stroke-miterlimit="10"/>
</svg>
