<svg width="1093" height="348" viewBox="0 0 1093 348" fill="none" xmlns="http://www.w3.org/2000/svg">
<path d="M10.0092 232.035C10.0092 223.536 11.6459 215.542 14.9193 208.051C18.2556 200.497 22.7251 193.887 28.3276 188.222C33.9931 182.556 40.5714 178.087 48.0625 174.813C55.5535 171.54 63.5167 169.903 71.952 169.903C77.5546 169.903 82.9683 170.658 88.1931 172.169C93.4809 173.617 98.4225 175.726 103.018 178.496C107.613 181.203 111.799 184.445 115.576 188.222C119.353 191.999 122.595 196.216 125.302 200.874C128.072 205.47 130.181 210.411 131.629 215.699C133.139 220.924 133.895 226.369 133.895 232.035C133.895 237.7 133.139 243.177 131.629 248.465C130.181 253.69 128.072 258.6 125.302 263.195C122.595 267.79 119.353 271.977 115.576 275.754C111.799 279.531 107.613 282.772 103.018 285.479C98.4225 288.186 93.4809 290.295 88.1931 291.806C82.9683 293.254 77.5546 293.978 71.952 293.978C66.3495 293.978 60.9043 293.254 55.6165 291.806C50.3916 290.295 45.4815 288.186 40.8862 285.479C36.2908 282.772 32.1046 279.531 28.3276 275.754C24.5506 271.977 21.3087 267.79 18.6019 263.195C15.895 258.6 13.7862 253.69 12.2754 248.465C10.7646 243.177 10.0092 237.7 10.0092 232.035ZM28.7998 232.035C28.7998 238.015 29.9329 243.68 32.1991 249.031C34.4653 254.382 37.5498 259.072 41.4527 263.101C45.3556 267.129 49.9195 270.34 55.1444 272.732C60.3692 275.124 65.9718 276.32 71.952 276.32C77.8693 276.32 83.4089 275.124 88.5708 272.732C93.7957 270.34 98.3281 267.129 102.168 263.101C106.071 259.072 109.124 254.382 111.327 249.031C113.593 243.68 114.727 238.015 114.727 232.035C114.727 226.18 113.593 220.546 111.327 215.133C109.124 209.719 106.071 204.966 102.168 200.874C98.3281 196.72 93.7957 193.415 88.5708 190.96C83.4089 188.505 77.8693 187.277 71.952 187.277C65.9718 187.277 60.3692 188.505 55.1444 190.96C49.9195 193.415 45.3556 196.72 41.4527 200.874C37.5498 204.966 34.4653 209.719 32.1991 215.133C29.9329 220.546 28.7998 226.18 28.7998 232.035ZM176.346 184.539C177.102 183.091 178.172 181.517 179.557 179.818C181.005 178.118 182.736 176.544 184.75 175.096C186.765 173.649 189.062 172.453 191.643 171.508C194.224 170.501 197.057 169.997 200.141 169.997C203.541 169.997 206.594 170.155 209.301 170.47C212.07 170.721 214.683 171.225 217.138 171.98C219.593 172.673 221.954 173.649 224.22 174.908C226.549 176.104 228.973 177.646 231.491 179.534C232.246 180.101 233.064 180.825 233.946 181.706C234.89 182.587 235.362 183.626 235.362 184.822C235.362 185.515 235.205 186.144 234.89 186.711L229.319 195.303C228.437 196.374 227.556 196.909 226.675 196.909C226.171 196.909 225.699 196.751 225.258 196.436C224.818 196.059 224.283 195.65 223.653 195.209C219.75 192.565 215.942 190.645 212.228 189.449C208.577 188.19 204.674 187.561 200.519 187.561C197.372 187.561 194.35 188.159 191.454 189.355C188.559 190.551 185.978 192.282 183.711 194.548C181.508 196.751 179.714 199.49 178.329 202.763C177.007 205.973 176.346 209.625 176.346 213.716V287.651C176.346 290.421 174.961 291.806 172.192 291.806H162.371C159.476 291.806 158.028 290.421 158.028 287.651V176.041C158.028 174.782 158.437 173.774 159.255 173.019C160.074 172.264 161.049 171.886 162.183 171.886H172.003C173.325 171.886 174.363 172.295 175.119 173.113C175.937 173.932 176.346 174.908 176.346 176.041V184.539ZM354.64 275.848C349.226 281.388 342.931 285.763 335.755 288.973C328.579 292.121 320.804 293.694 312.432 293.694C306.829 293.694 301.384 292.97 296.096 291.523C290.872 290.012 285.961 287.903 281.366 285.196C276.771 282.426 272.585 279.153 268.808 275.376C265.031 271.599 261.757 267.413 258.987 262.817C256.281 258.159 254.172 253.217 252.661 247.993C251.213 242.705 250.489 237.228 250.489 231.563C250.489 225.897 251.213 220.452 252.661 215.227C254.172 209.939 256.281 204.998 258.987 200.402C261.757 195.807 265.031 191.621 268.808 187.844C272.585 184.067 276.771 180.825 281.366 178.118C285.961 175.411 290.872 173.334 296.096 171.886C301.321 170.375 306.766 169.62 312.432 169.62C320.804 169.62 328.579 171.225 335.755 174.435C342.931 177.583 349.226 181.926 354.64 187.466V175.946C354.64 173.176 356.025 171.792 358.795 171.792H368.52C371.479 171.792 372.958 173.176 372.958 175.946V287.651C372.958 288.91 372.549 289.917 371.731 290.673C370.913 291.428 369.937 291.806 368.804 291.806H358.984C357.662 291.806 356.591 291.397 355.773 290.578C355.018 289.76 354.64 288.784 354.64 287.651V275.848ZM355.584 231.563C355.584 225.645 354.451 220.011 352.185 214.661C349.919 209.247 346.834 204.526 342.931 200.497C339.028 196.468 334.433 193.258 329.145 190.865C323.92 188.473 318.349 187.277 312.432 187.277C306.515 187.277 300.944 188.473 295.719 190.865C290.557 193.258 286.024 196.468 282.122 200.497C278.282 204.526 275.228 209.247 272.962 214.661C270.759 220.011 269.657 225.645 269.657 231.563C269.657 237.417 270.759 243.051 272.962 248.465C275.228 253.878 278.282 258.663 282.122 262.817C286.024 266.909 290.557 270.182 295.719 272.638C300.944 275.093 306.515 276.32 312.432 276.32C318.349 276.32 323.92 275.093 329.145 272.638C334.433 270.182 339.028 266.909 342.931 262.817C346.834 258.663 349.919 253.878 352.185 248.465C354.451 243.051 355.584 237.417 355.584 231.563ZM418.135 287.651C418.135 290.421 416.75 291.806 413.98 291.806H404.254C401.296 291.806 399.816 290.421 399.816 287.651V140.442C399.816 139.183 400.226 138.176 401.044 137.421C401.862 136.665 402.838 136.288 403.971 136.288H413.791C415.113 136.288 416.152 136.697 416.907 137.515C417.726 138.334 418.135 139.309 418.135 140.442V287.651Z" fill="#3EAC54"/>
<path d="M553.689 275.187C548.276 280.915 541.918 285.448 534.616 288.784C527.313 292.058 519.382 293.694 510.82 293.694C505.218 293.694 499.773 292.97 494.485 291.523C489.26 290.012 484.35 287.903 479.755 285.196C475.159 282.426 470.973 279.153 467.196 275.376C463.419 271.599 460.146 267.413 457.376 262.817C454.669 258.159 452.56 253.217 451.049 247.993C449.602 242.705 448.878 237.228 448.878 231.563C448.878 225.897 449.602 220.452 451.049 215.227C452.56 209.939 454.669 204.998 457.376 200.402C460.146 195.807 463.419 191.621 467.196 187.844C470.973 184.067 475.159 180.825 479.755 178.118C484.35 175.411 489.26 173.334 494.485 171.886C499.71 170.375 505.155 169.62 510.82 169.62C519.193 169.62 526.967 171.225 534.143 174.435C541.32 177.583 547.615 181.926 553.028 187.466V175.946C553.028 173.176 554.413 171.792 557.183 171.792L567.853 171.886C570.182 172.201 571.347 173.554 571.347 175.946V177.457V177.74V272.354C571.347 279.531 570.529 286.014 568.892 291.806C567.318 297.534 565.115 302.602 562.282 307.008C559.449 311.415 556.05 315.192 552.084 318.339C548.181 321.487 543.901 324.036 539.242 325.988C534.584 328.002 529.611 329.481 524.323 330.426C519.098 331.37 513.748 331.842 508.271 331.842C500.843 331.842 494.076 330.772 487.97 328.632C481.926 326.491 476.544 323.816 471.823 320.605C471.193 320.291 470.658 319.882 470.218 319.378C469.84 318.937 469.651 318.308 469.651 317.489C469.651 317.238 469.651 316.986 469.651 316.734C469.714 316.482 469.871 316.167 470.123 315.79L475.222 307.575C475.726 306.882 476.166 306.347 476.544 305.97C476.985 305.655 477.457 305.497 477.961 305.497C478.779 305.497 479.534 305.749 480.227 306.253C481.675 307.386 483.595 308.393 485.987 309.274C488.379 310.219 490.928 311.006 493.635 311.635C496.405 312.265 499.143 312.737 501.85 313.051C504.557 313.429 506.949 313.618 509.026 313.618C515.51 313.618 521.459 312.768 526.873 311.068C532.286 309.432 536.945 307.103 540.848 304.081C544.751 301.059 547.804 297.408 550.007 293.128C552.21 288.91 553.312 284.189 553.312 278.964L553.689 275.187ZM553.973 231.563C553.973 225.645 552.84 220.011 550.573 214.661C548.307 209.247 545.223 204.526 541.32 200.497C537.417 196.468 532.822 193.258 527.534 190.865C522.309 188.473 516.738 187.277 510.82 187.277C504.903 187.277 499.332 188.473 494.107 190.865C488.945 193.258 484.413 196.468 480.51 200.497C476.67 204.526 473.617 209.247 471.351 214.661C469.148 220.011 468.046 225.645 468.046 231.563C468.046 237.417 469.148 243.051 471.351 248.465C473.617 253.878 476.67 258.663 480.51 262.817C484.413 266.909 488.945 270.182 494.107 272.638C499.332 275.093 504.903 276.32 510.82 276.32C516.738 276.32 522.309 275.093 527.534 272.638C532.822 270.182 537.417 266.909 541.32 262.817C545.223 258.663 548.307 253.878 550.573 248.465C552.84 243.051 553.973 237.417 553.973 231.563ZM615.644 184.539C616.399 183.091 617.47 181.517 618.854 179.818C620.302 178.118 622.033 176.544 624.048 175.096C626.062 173.649 628.36 172.453 630.941 171.508C633.522 170.501 636.355 169.997 639.439 169.997C642.838 169.997 645.892 170.155 648.598 170.47C651.368 170.721 653.981 171.225 656.436 171.98C658.891 172.673 661.251 173.649 663.518 174.908C665.847 176.104 668.27 177.646 670.788 179.534C671.544 180.101 672.362 180.825 673.243 181.706C674.188 182.587 674.66 183.626 674.66 184.822C674.66 185.515 674.502 186.144 674.188 186.711L668.617 195.303C667.735 196.374 666.854 196.909 665.973 196.909C665.469 196.909 664.997 196.751 664.556 196.436C664.116 196.059 663.58 195.65 662.951 195.209C659.048 192.565 655.24 190.645 651.526 189.449C647.874 188.19 643.972 187.561 639.817 187.561C636.669 187.561 633.648 188.159 630.752 189.355C627.856 190.551 625.275 192.282 623.009 194.548C620.806 196.751 619.012 199.49 617.627 202.763C616.305 205.973 615.644 209.625 615.644 213.716V287.651C615.644 290.421 614.259 291.806 611.489 291.806H601.669C598.773 291.806 597.326 290.421 597.326 287.651V176.041C597.326 174.782 597.735 173.774 598.553 173.019C599.371 172.264 600.347 171.886 601.48 171.886H611.3C612.622 171.886 613.661 172.295 614.417 173.113C615.235 173.932 615.644 174.908 615.644 176.041V184.539ZM687.398 232.035C687.398 223.536 689.035 215.542 692.308 208.051C695.645 200.497 700.114 193.887 705.717 188.222C711.382 182.556 717.961 178.087 725.452 174.813C732.943 171.54 740.906 169.903 749.341 169.903C754.944 169.903 760.357 170.658 765.582 172.169C770.87 173.617 775.812 175.726 780.407 178.496C785.002 181.203 789.188 184.445 792.965 188.222C796.742 191.999 799.984 196.216 802.691 200.874C805.461 205.47 807.57 210.411 809.018 215.699C810.529 220.924 811.284 226.369 811.284 232.035C811.284 237.7 810.529 243.177 809.018 248.465C807.57 253.69 805.461 258.6 802.691 263.195C799.984 267.79 796.742 271.977 792.965 275.754C789.188 279.531 785.002 282.772 780.407 285.479C775.812 288.186 770.87 290.295 765.582 291.806C760.357 293.254 754.944 293.978 749.341 293.978C743.739 293.978 738.293 293.254 733.006 291.806C727.781 290.295 722.871 288.186 718.275 285.479C713.68 282.772 709.494 279.531 705.717 275.754C701.94 271.977 698.698 267.79 695.991 263.195C693.284 258.6 691.175 253.69 689.664 248.465C688.154 243.177 687.398 237.7 687.398 232.035ZM706.189 232.035C706.189 238.015 707.322 243.68 709.588 249.031C711.854 254.382 714.939 259.072 718.842 263.101C722.745 267.129 727.309 270.34 732.533 272.732C737.758 275.124 743.361 276.32 749.341 276.32C755.258 276.32 760.798 275.124 765.96 272.732C771.185 270.34 775.717 267.129 779.557 263.101C783.46 259.072 786.513 254.382 788.716 249.031C790.983 243.68 792.116 238.015 792.116 232.035C792.116 226.18 790.983 220.546 788.716 215.133C786.513 209.719 783.46 204.966 779.557 200.874C775.717 196.72 771.185 193.415 765.96 190.96C760.798 188.505 755.258 187.277 749.341 187.277C743.361 187.277 737.758 188.505 732.533 190.96C727.309 193.415 722.745 196.72 718.842 200.874C714.939 204.966 711.854 209.719 709.588 215.133C707.322 220.546 706.189 226.18 706.189 232.035ZM915.206 277.831C913.381 280.034 911.461 282.017 909.446 283.78C907.495 285.479 905.26 286.927 902.742 288.123C900.287 289.319 897.486 290.232 894.338 290.862C891.191 291.491 887.54 291.806 883.385 291.806C875.642 291.806 868.812 290.484 862.895 287.84C856.977 285.133 852.004 281.482 847.975 276.887C844.01 272.228 840.988 266.783 838.911 260.551C836.896 254.319 835.889 247.646 835.889 240.533V176.418C835.889 174.278 836.424 172.673 837.494 171.603C838.627 170.533 840.044 169.997 841.743 169.997H848.731C851.06 169.997 852.539 170.47 853.169 171.414C853.861 172.358 854.207 173.932 854.207 176.135V240.533C854.207 244.31 854.711 248.181 855.718 252.147C856.788 256.05 858.488 259.607 860.817 262.817C863.209 266.028 866.357 268.64 870.26 270.655C874.163 272.669 878.947 273.676 884.612 273.676C888.2 273.676 891.789 273.047 895.377 271.788C899.028 270.466 902.301 268.546 905.197 266.028C908.156 263.51 910.548 260.425 912.373 256.774C914.262 253.06 915.206 248.779 915.206 243.932V174.152C915.206 171.382 916.591 169.997 919.361 169.997H929.087C932.045 169.997 933.525 171.382 933.525 174.152V285.763C933.525 287.022 933.115 288.029 932.297 288.784C931.479 289.54 930.503 289.917 929.37 289.917H919.55C918.228 289.917 917.158 289.508 916.339 288.69C915.584 287.871 915.206 286.896 915.206 285.763V277.831ZM978.972 187.466C984.386 181.926 990.681 177.583 997.858 174.435C1005.03 171.225 1012.81 169.62 1021.18 169.62C1026.85 169.62 1032.29 170.375 1037.52 171.886C1042.74 173.334 1047.65 175.411 1052.25 178.118C1056.84 180.825 1061.03 184.067 1064.8 187.844C1068.58 191.621 1071.82 195.807 1074.53 200.402C1077.3 204.998 1079.41 209.939 1080.86 215.227C1082.37 220.452 1083.12 225.897 1083.12 231.563C1083.12 237.228 1082.37 242.705 1080.86 247.993C1079.41 253.217 1077.3 258.159 1074.53 262.817C1071.82 267.413 1068.58 271.599 1064.8 275.376C1061.03 279.153 1056.84 282.426 1052.25 285.196C1047.65 287.903 1042.71 290.012 1037.42 291.523C1032.2 292.97 1026.78 293.694 1021.18 293.694C1012.81 293.694 1005.03 292.121 997.858 288.973C990.681 285.763 984.386 281.388 978.972 275.848V324.005C978.972 325.138 978.563 326.114 977.745 326.932C976.99 327.75 975.951 328.159 974.629 328.159H964.809C963.676 328.159 962.7 327.782 961.882 327.026C961.063 326.271 960.654 325.264 960.654 324.005V175.946C960.654 173.176 962.133 171.792 965.092 171.792H974.818C977.588 171.792 978.972 173.176 978.972 175.946V187.466ZM978.028 231.563C978.028 237.417 979.161 243.051 981.428 248.465C983.694 253.878 986.778 258.663 990.681 262.817C994.584 266.909 999.148 270.182 1004.37 272.638C1009.6 275.093 1015.2 276.32 1021.18 276.32C1027.1 276.32 1032.64 275.093 1037.8 272.638C1043.02 270.182 1047.56 266.909 1051.4 262.817C1055.3 258.663 1058.35 253.878 1060.56 248.465C1062.82 243.051 1063.96 237.417 1063.96 231.563C1063.96 225.645 1062.82 220.011 1060.56 214.661C1058.35 209.247 1055.3 204.526 1051.4 200.497C1047.56 196.468 1043.02 193.258 1037.8 190.865C1032.64 188.473 1027.1 187.277 1021.18 187.277C1015.2 187.277 1009.6 188.473 1004.37 190.865C999.148 193.258 994.584 196.468 990.681 200.497C986.778 204.526 983.694 209.247 981.428 214.661C979.161 220.011 978.028 225.645 978.028 231.563Z" fill="#ED7136"/>
<path d="M894.53 47.91C882.16 98.02 831.51 128.62 781.39 116.25C731.28 103.88 700.68 53.23 713.05 3.10999" stroke="#3EAC54" stroke-width="26" stroke-miterlimit="10"/>
</svg>
